<svg width="1600" height="900" viewBox="0 0 1600 900" fill="none" xmlns="http://www.w3.org/2000/svg">
  <defs>
    <linearGradient id="bg2" x1="0" y1="0" x2="1600" y2="900" gradientUnits="userSpaceOnUse">
      <stop stop-color="#FBFCFE"/>
      <stop offset="1" stop-color="#F1F5F9"/>
    </linearGradient>
    <linearGradient id="blue" x1="0" y1="0" x2="1" y2="1">
      <stop stop-color="#0EA5E9"/>
      <stop offset="1" stop-color="#2563EB"/>
    </linearGradient>
    <linearGradient id="green" x1="0" y1="0" x2="1" y2="1">
      <stop stop-color="#10B981"/>
      <stop offset="1" stop-color="#0F766E"/>
    </linearGradient>
    <filter id="cardShadow" x="-20%" y="-20%" width="140%" height="160%">
      <feDropShadow dx="0" dy="14" stdDeviation="18" flood-color="#0F172A14"/>
    </filter>
  </defs>

  <rect width="1600" height="900" rx="28" fill="url(#bg2)"/>

  <text x="800" y="92" text-anchor="middle" font-family="Arial, Helvetica, sans-serif" font-size="42" font-weight="700" fill="#0F172A">Skill Tabanlı Teslim Akışı</text>
  <text x="800" y="130" text-anchor="middle" font-family="Arial, Helvetica, sans-serif" font-size="22" fill="#334155">Prompt tek başına yetmez; instruction, skill, MCP ve verification birlikte çalışır</text>

  <rect x="85" y="280" width="220" height="150" rx="24" fill="#FFFFFF" filter="url(#cardShadow)"/>
  <circle cx="195" cy="330" r="26" fill="#DBEAFE"/>
  <text x="195" y="338" text-anchor="middle" font-family="Arial, Helvetica, sans-serif" font-size="22" font-weight="700" fill="#2563EB">1</text>
  <text x="195" y="378" text-anchor="middle" font-family="Arial, Helvetica, sans-serif" font-size="30" font-weight="700" fill="#0F172A">Prompt</text>
  <text x="195" y="407" text-anchor="middle" font-family="Arial, Helvetica, sans-serif" font-size="18" fill="#475569">Hedef ve iş isteği</text>

  <rect x="365" y="250" width="250" height="210" rx="24" fill="#FFFFFF" filter="url(#cardShadow)"/>
  <circle cx="490" cy="300" r="26" fill="#DBEAFE"/>
  <text x="490" y="308" text-anchor="middle" font-family="Arial, Helvetica, sans-serif" font-size="22" font-weight="700" fill="#2563EB">2</text>
  <text x="490" y="346" text-anchor="middle" font-family="Arial, Helvetica, sans-serif" font-size="28" font-weight="700" fill="#0F172A">Repo Talimatı</text>
  <text x="490" y="378" text-anchor="middle" font-family="Arial, Helvetica, sans-serif" font-size="18" fill="#475569">AGENTS.md veya</text>
  <text x="490" y="404" text-anchor="middle" font-family="Arial, Helvetica, sans-serif" font-size="18" fill="#475569">copilot-instructions.md</text>

  <rect x="675" y="220" width="250" height="270" rx="24" fill="url(#blue)" filter="url(#cardShadow)"/>
  <circle cx="800" cy="272" r="26" fill="#FFFFFF33"/>
  <text x="800" y="280" text-anchor="middle" font-family="Arial, Helvetica, sans-serif" font-size="22" font-weight="700" fill="#FFFFFF">3</text>
  <text x="800" y="324" text-anchor="middle" font-family="Arial, Helvetica, sans-serif" font-size="30" font-weight="700" fill="#FFFFFF">Skill</text>
  <text x="800" y="362" text-anchor="middle" font-family="Arial, Helvetica, sans-serif" font-size="18" fill="#E0F2FE">Karar kuralları</text>
  <text x="800" y="388" text-anchor="middle" font-family="Arial, Helvetica, sans-serif" font-size="18" fill="#E0F2FE">Örnekler</text>
  <text x="800" y="414" text-anchor="middle" font-family="Arial, Helvetica, sans-serif" font-size="18" fill="#E0F2FE">Kontrol listesi</text>
  <text x="800" y="440" text-anchor="middle" font-family="Arial, Helvetica, sans-serif" font-size="18" fill="#E0F2FE">Doğrulama beklentisi</text>

  <rect x="985" y="250" width="250" height="210" rx="24" fill="#FFFFFF" filter="url(#cardShadow)"/>
  <circle cx="1110" cy="300" r="26" fill="#DCFCE7"/>
  <text x="1110" y="308" text-anchor="middle" font-family="Arial, Helvetica, sans-serif" font-size="22" font-weight="700" fill="#0F766E">4</text>
  <text x="1110" y="346" text-anchor="middle" font-family="Arial, Helvetica, sans-serif" font-size="28" font-weight="700" fill="#0F172A">MCP / Tools</text>
  <text x="1110" y="378" text-anchor="middle" font-family="Arial, Helvetica, sans-serif" font-size="18" fill="#475569">GitHub MCP</text>
  <text x="1110" y="404" text-anchor="middle" font-family="Arial, Helvetica, sans-serif" font-size="18" fill="#475569">Context7, terminal, web</text>

  <rect x="1295" y="280" width="220" height="150" rx="24" fill="url(#green)" filter="url(#cardShadow)"/>
  <circle cx="1405" cy="330" r="26" fill="#FFFFFF33"/>
  <text x="1405" y="338" text-anchor="middle" font-family="Arial, Helvetica, sans-serif" font-size="22" font-weight="700" fill="#FFFFFF">5</text>
  <text x="1405" y="378" text-anchor="middle" font-family="Arial, Helvetica, sans-serif" font-size="30" font-weight="700" fill="#FFFFFF">Verify</text>
  <text x="1405" y="407" text-anchor="middle" font-family="Arial, Helvetica, sans-serif" font-size="18" fill="#D1FAE5">Test, lint, review, check</text>

  <path d="M305 355H355" stroke="#94A3B8" stroke-width="8" stroke-linecap="round"/>
  <path d="M615 355H665" stroke="#94A3B8" stroke-width="8" stroke-linecap="round"/>
  <path d="M925 355H975" stroke="#94A3B8" stroke-width="8" stroke-linecap="round"/>
  <path d="M1235 355H1285" stroke="#94A3B8" stroke-width="8" stroke-linecap="round"/>
  <path d="M348 355L330 343V367L348 355Z" fill="#94A3B8"/>
  <path d="M658 355L640 343V367L658 355Z" fill="#94A3B8"/>
  <path d="M968 355L950 343V367L968 355Z" fill="#94A3B8"/>
  <path d="M1278 355L1260 343V367L1278 355Z" fill="#94A3B8"/>

  <rect x="180" y="590" width="1240" height="170" rx="28" fill="#FFFFFF" filter="url(#cardShadow)"/>
  <text x="220" y="645" font-family="Arial, Helvetica, sans-serif" font-size="28" font-weight="700" fill="#0F172A">Ana fikir</text>
  <text x="220" y="690" font-family="Arial, Helvetica, sans-serif" font-size="22" fill="#334155">Skill, prompt'un yerine geçmez; prompt'u operasyonel bir akışa bağlar.</text>
  <text x="220" y="725" font-family="Arial, Helvetica, sans-serif" font-size="22" fill="#334155">En güçlü kombinasyon: repo talimatı + uzman skill + doğru MCP + zorunlu verification.</text>
</svg>
